
        <svg xmlns="http://www.w3.org/2000/svg" xmlns:xlink="http://www.w3.org/1999/xlink" version="1.1" width="3171.4285714285716" 
        height="1670.2892575549756" viewBox="0 0 3171.4285714285716 1670.2892575549756">
			
			<g transform="scale(8.571428571428571) translate(10, 10)">
				<defs id="SvgjsDefs1630"></defs><g id="SvgjsG1631" featureKey="symbolFeature-0" transform="matrix(1.5190972222222223,0,0,1.5190972222222223,107.328125,-13.216145543588533)" fill="#111111"><polygon xmlns="http://www.w3.org/2000/svg" points="71,48.7 71,18.2 54.8,9 38.7,9 63,22.8 63,36.7 63,53.3 "></polygon><polygon xmlns="http://www.w3.org/2000/svg" points="29,66 54.8,81 54.7,81 55.1,81.3 71.7,71.7 79.7,57.8 55.3,72 29,56.8 "></polygon><polygon xmlns="http://www.w3.org/2000/svg" points="61.2,57 61.3,57 46.9,65.2 54.8,69.8 81,54.5 81,35.2 73,21.3 73,49.8 "></polygon><polygon xmlns="http://www.w3.org/2000/svg" points="61,23.9 34.8,8.7 18.2,18.3 10.2,32.3 35,18 47,25 46.8,25 61,33.2 "></polygon><polygon xmlns="http://www.w3.org/2000/svg" points="35.2,20.3 9,35.6 9,54.8 17,68.7 17,40.2 28.8,33.2 28.8,33.2 43.2,24.9 "></polygon><polygon xmlns="http://www.w3.org/2000/svg" points="19,41.3 19,71.8 35.2,81 51.4,81 27,67.2 27,53.3 27,36.7 "></polygon></g><g id="SvgjsG1632" featureKey="nameFeature-0" transform="matrix(0.8371875729969633,0,0,0.8371875729969633,-2.6815106561879527,120.8925496105612)" fill="#111111"><path d="M26.953 40 l-8.8281 0 l-7.4805 -12.305 l0 12.305 l-7.4414 0 l0 -28.711 l10.996 0 c6.875 0 9.6094 3.9453 9.6094 8.8672 c0 4.043 -2.3828 6.4063 -5.8203 7.1484 z M16.719 20.234 c0 -1.7578 -0.99609 -2.8711 -3.75 -2.8711 l-2.3242 0 l0 5.7617 l2.3242 0 c2.7539 0 3.75 -1.1328 3.75 -2.8906 z M46.605937499999996 17.754 l-10 0 l0 4.6875 l8.9063 0 l0 6.4063 l-8.9063 0 l0 4.6289 l10 0 l0 6.5234 l-17.441 0 l0 -28.711 l17.441 0 l0 6.4648 z M85.730625 40 l-7.4414 0 l-1.875 -20.234 l-6.0742 20.234 l-4.9219 0 l-6.0742 -20.332 l-1.8945 20.332 l-7.4805 0 l2.5195 -28.711 l10.879 0 l4.4922 14.668 l4.5508 -14.668 l10.84 0 z M107.3559375 17.754 l-10 0 l0 4.6875 l8.9063 0 l0 6.4063 l-8.9063 0 l0 4.6289 l10 0 l0 6.5234 l-17.441 0 l0 -28.711 l17.441 0 l0 6.4648 z M146.480625 40 l-7.4414 0 l-1.875 -20.234 l-6.0742 20.234 l-4.9219 0 l-6.0742 -20.332 l-1.8945 20.332 l-7.4805 0 l2.5195 -28.711 l10.879 0 l4.4922 14.668 l4.5508 -14.668 l10.84 0 z M167.3829375 24.766 c3.0469 0.9375 5.0781 2.9297 5.0781 7.0313 c0 5 -2.793 8.2031 -9.5508 8.2031 l-12.246 0 l0 -28.711 l9.668 0 c6.8945 0 10.098 2.9102 10.098 8.0273 c0 2.4023 -0.97656 4.3555 -3.0469 5.4492 z M160.4689375 17.363 l-2.6563 0 l0 5.0781 l2.6563 0 c2.4805 0 3.1445 -1.1133 3.1445 -2.6367 c0 -1.4453 -0.83984 -2.4414 -3.1445 -2.4414 z M161.4649375 33.7109 c3.2031 0 3.7891 -1.3867 3.7891 -2.7539 c0 -1.3477 -0.50781 -2.9102 -3.7891 -2.9102 l-3.6523 0 l0 5.6641 l3.6523 0 z M193.26609375 17.754 l-10 0 l0 4.6875 l8.9063 0 l0 6.4063 l-8.9063 0 l0 4.6289 l10 0 l0 6.5234 l-17.441 0 l0 -28.711 l17.441 0 l0 6.4648 z M221.62878125 40 l-8.8281 0 l-7.4805 -12.305 l0 12.305 l-7.4414 0 l0 -28.711 l10.996 0 c6.875 0 9.6094 3.9453 9.6094 8.8672 c0 4.043 -2.3828 6.4063 -5.8203 7.1484 z M211.39478125 20.234 c0 -1.7578 -0.99609 -2.8711 -3.75 -2.8711 l-2.3242 0 l0 5.7617 l2.3242 0 c2.7539 0 3.75 -1.1328 3.75 -2.8906 z M245.87515625 11.289000000000001 c5.8789 0 9.4727 4.3164 9.4727 9.5898 c0 5.4102 -3.5938 9.3945 -9.4727 9.3945 l-5.1953 0 l0 9.7266 l-7.4414 0 l0 -28.711 l12.637 0 z M244.58615625 24.121000000000002 c2.6563 0 3.6914 -1.25 3.6914 -3.3594 c0 -1.9922 -1.0352 -3.3203 -3.6914 -3.3203 l-3.9063 0 l0 6.6797 l3.9063 0 z M282.187375 40 l-8.8281 0 l-7.4805 -12.305 l0 12.305 l-7.4414 0 l0 -28.711 l10.996 0 c6.875 0 9.6094 3.9453 9.6094 8.8672 c0 4.043 -2.3828 6.4063 -5.8203 7.1484 z M271.953375 20.234 c0 -1.7578 -0.99609 -2.8711 -3.75 -2.8711 l-2.3242 0 l0 5.7617 l2.3242 0 c2.7539 0 3.75 -1.1328 3.75 -2.8906 z M297.3863125 40.39063 c-8.6719 0 -14.902 -5.8789 -14.902 -14.746 c0 -8.9258 6.2305 -14.766 14.902 -14.766 c8.6914 0 14.922 5.8398 14.922 14.766 c0 8.8672 -6.2305 14.746 -14.922 14.746 z M297.3863125 33.6328 c4.3359 0 7.5781 -3.0664 7.5781 -7.9883 s-3.2422 -8.0078 -7.5781 -8.0078 c-4.3164 0 -7.5195 3.0859 -7.5195 8.0078 s3.2031 7.9883 7.5195 7.9883 z M350.32046875000003 40 l-7.4414 0 l-1.875 -20.234 l-6.0742 20.234 l-4.9219 0 l-6.0742 -20.332 l-1.8945 20.332 l-7.4805 0 l2.5195 -28.711 l10.879 0 l4.4922 14.668 l4.5508 -14.668 l10.84 0 z M367.14078125 11.289000000000001 c5.8789 0 9.4727 4.3164 9.4727 9.5898 c0 5.4102 -3.5938 9.3945 -9.4727 9.3945 l-5.1953 0 l0 9.7266 l-7.4414 0 l0 -28.711 l12.637 0 z M365.85178125 24.121000000000002 c2.6563 0 3.6914 -1.25 3.6914 -3.3594 c0 -1.9922 -1.0352 -3.3203 -3.6914 -3.3203 l-3.9063 0 l0 6.6797 l3.9063 0 z M397.418 11.289000000000001 l0 6.4648 l-6.4844 0 l0 22.246 l-7.3633 0 l0 -22.246 l-6.5039 0 l0 -6.4648 l20.352 0 z M410.1561875 40.39063 c-6.2891 0 -11.406 -3.0273 -12.207 -8.7891 l7.7148 -1.7578 c0.21484 3.125 2.168 4.5898 4.8047 4.5898 c1.9141 0 3.0859 -0.91797 3.0859 -2.5586 c0 -2.1484 -2.7539 -2.9492 -5.957 -4.043 c-4.043 -1.3477 -8.5742 -3.0273 -8.5742 -8.3203 c0 -5.3516 4.3359 -8.6328 10.527 -8.6328 c5.0391 0 10.527 1.9922 11.719 7.9297 l-7.1484 1.7578 c-0.41016 -2.5977 -1.7773 -3.7305 -4.082 -3.7305 c-2.0508 0 -3.4961 0.80078 -3.4961 2.4805 c0 1.6016 2.5781 2.2461 5.5273 3.2031 c4.1211 1.3672 9.1992 3.2422 9.1992 8.9258 c0 6.3086 -5.3125 8.9453 -11.113 8.9453 z"></path></g><g id="SvgjsG1633" featureKey="sloganFeature-0" transform="matrix(0.6803944832150193,0,0,0.6803944832150193,34.887191179189315,161.12630245846404)" fill="#111111"><path d="M12.412 5.888999999999999 l-4.6387 7.3535 l0 6.7578 l-2.9395 0 l0 -6.6895 l-4.668 -7.4219 l3.2422 0 l2.8809 4.8047 l2.8906 -4.8047 l3.2324 0 z M23.04934453125 20.19531 c-4.1504 0 -7.2168 -2.832 -7.2168 -7.2559 c0 -4.4336 3.0664 -7.2461 7.2168 -7.2461 c4.1406 0 7.207 2.8125 7.207 7.2461 c0 4.4238 -3.0664 7.2559 -7.207 7.2559 z M23.04934453125 17.5098 c2.4316 0 4.2969 -1.709 4.2969 -4.5703 c0 -2.8516 -1.8652 -4.5508 -4.2969 -4.5508 s-4.2969 1.6992 -4.2969 4.5508 c0 2.8613 1.8652 4.5703 4.2969 4.5703 z M40.5810734375 20.19531 c-3.0957 0 -5.5176 -1.582 -5.5176 -5.1367 l0 -9.1699 l2.9297 0 l0 8.7695 c0 2.1484 1.1426 2.9492 2.5879 2.9492 c1.4551 0 2.6074 -0.81055 2.6074 -2.9492 l0 -8.7695 l2.9297 0 l0 9.1699 c0 3.5547 -2.4316 5.1367 -5.5371 5.1367 z M59.33345234375 20 l-3.6719 -6.2109 l-0.84961 0 l0 6.2109 l-2.9297 0 l0 -14.111 l5.1172 0 c3.1934 0 4.541 1.8848 4.541 4.2188 c0 1.8945 -1.0742 3.125 -2.9883 3.5352 l4.248 6.3574 l-3.4668 0 z M54.81205234375 8.32 l0 3.3691 l1.7285 0 c1.5625 0 2.1973 -0.66406 2.1973 -1.6797 c0 -1.0059 -0.63477 -1.6895 -2.1973 -1.6895 l-1.7285 0 z M84.39744140625 20 l-1.0254 -2.9102 l-5.9277 0 l-1.0254 2.9102 l-2.998 0 l5.1953 -14.111 l3.584 0 l5.1953 14.111 l-2.998 0 z M78.30324140625 14.6387 l4.209 0 l-2.0996 -5.9863 z M94.8486734375 17.4121 l4.4238 0 l0 2.5879 l-7.3535 0 l0 -14.111 l2.9297 0 l0 11.523 z M106.84330234375 17.4121 l4.4238 0 l0 2.5879 l-7.3535 0 l0 -14.111 l2.9297 0 l0 11.523 z M126.49403125 5.888999999999999 l-4.6387 7.3535 l0 6.7578 l-2.9395 0 l0 -6.6895 l-4.668 -7.4219 l3.2422 0 l2.8809 4.8047 l2.8906 -4.8047 l3.2324 0 z M138.4814734375 20 l0 -14.111 l2.9297 0 l0 14.111 l-2.9297 0 z M157.09732421875 5.888999999999999 l2.9199 0 l0 14.111 l-3.3887 0 l-6.25 -10.088 l0 10.088 l-2.9199 0 l0 -14.111 l3.3496 0 l6.2891 10.029 l0 -10.029 z M183.11814453125 20 l-1.0254 -2.9102 l-5.9277 0 l-1.0254 2.9102 l-2.998 0 l5.1953 -14.111 l3.584 0 l5.1953 14.111 l-2.998 0 z M177.02394453125 14.6387 l4.209 0 l-2.0996 -5.9863 z M190.6396765625 20 l0 -14.111 l2.9297 0 l0 14.111 l-2.9297 0 z M216.660625 20 l-1.0254 -2.9102 l-5.9277 0 l-1.0254 2.9102 l-2.998 0 l5.1953 -14.111 l3.584 0 l5.1953 14.111 l-2.998 0 z M210.566425 14.6387 l4.209 0 l-2.0996 -5.9863 z M230.43215703125 20.19531 c-4.1504 0 -7.2168 -2.8223 -7.2168 -7.2559 s3.0664 -7.2461 7.2168 -7.2461 c3.1445 0 5.6641 1.6113 6.6699 4.2871 l-2.7344 0.99609 c-0.625 -1.6406 -2.1191 -2.5879 -3.9355 -2.5879 c-2.4316 0 -4.2969 1.6992 -4.2969 4.5508 s1.8652 4.5605 4.2969 4.5605 c1.8164 0 3.3105 -0.95703 3.9355 -2.5977 l2.7344 0.99609 c-1.0059 2.6758 -3.5254 4.2969 -6.6699 4.2969 z M248.1592078125 20.19531 c-4.1504 0 -7.2168 -2.8223 -7.2168 -7.2559 s3.0664 -7.2461 7.2168 -7.2461 c3.1445 0 5.6641 1.6113 6.6699 4.2871 l-2.7344 0.99609 c-0.625 -1.6406 -2.1191 -2.5879 -3.9355 -2.5879 c-2.4316 0 -4.2969 1.6992 -4.2969 4.5508 s1.8652 4.5605 4.2969 4.5605 c1.8164 0 3.3105 -0.95703 3.9355 -2.5977 l2.7344 0.99609 c-1.0059 2.6758 -3.5254 4.2969 -6.6699 4.2969 z M265.88625859375 20.19531 c-4.1504 0 -7.2168 -2.832 -7.2168 -7.2559 c0 -4.4336 3.0664 -7.2461 7.2168 -7.2461 c4.1406 0 7.207 2.8125 7.207 7.2461 c0 4.4238 -3.0664 7.2559 -7.207 7.2559 z M265.88625859375 17.5098 c2.4316 0 4.2969 -1.709 4.2969 -4.5703 c0 -2.8516 -1.8652 -4.5508 -4.2969 -4.5508 s-4.2969 1.6992 -4.2969 4.5508 c0 2.8613 1.8652 4.5703 4.2969 4.5703 z M283.4179875 20.19531 c-3.0957 0 -5.5176 -1.582 -5.5176 -5.1367 l0 -9.1699 l2.9297 0 l0 8.7695 c0 2.1484 1.1426 2.9492 2.5879 2.9492 c1.4551 0 2.6074 -0.81055 2.6074 -2.9492 l0 -8.7695 l2.9297 0 l0 9.1699 c0 3.5547 -2.4316 5.1367 -5.5371 5.1367 z M304.35806640625 5.888999999999999 l2.9199 0 l0 14.111 l-3.3887 0 l-6.25 -10.088 l0 10.088 l-2.9199 0 l0 -14.111 l3.3496 0 l6.2891 10.029 l0 -10.029 z M321.5187890625 5.888999999999999 l0 2.5781 l-3.3496 0 l0 11.533 l-2.9004 0 l0 -11.533 l-3.3691 0 l0 -2.5781 l9.6191 0 z M335.58396484375 20 l-1.0254 -2.9102 l-5.9277 0 l-1.0254 2.9102 l-2.998 0 l5.1953 -14.111 l3.584 0 l5.1953 14.111 l-2.998 0 z M329.48976484375 14.6387 l4.209 0 l-2.0996 -5.9863 z M350.683596875 12.5488 c1.5918 0.43945 2.6563 1.4844 2.6563 3.4961 c0 2.3828 -1.4453 3.9551 -4.4238 3.9551 l-5.8105 0 l0 -14.111 l4.5703 0 c3.0469 0 4.6484 1.4648 4.6484 3.8672 c0 1.2402 -0.53711 2.2559 -1.6406 2.793 z M347.705096875 8.32 l-1.7773 0 l0 3.3203 l1.9043 0 c1.25 0 1.7969 -0.74219 1.7969 -1.6992 c0 -0.9375 -0.61523 -1.6211 -1.9238 -1.6211 z M348.369096875 17.4902 c1.582 0 2.1289 -0.84961 2.1289 -1.7676 c0 -0.9375 -0.53711 -1.8262 -2.1875 -1.8262 l-2.3828 0 l0 3.5938 l2.4414 0 z M358.35207890625 20 l0 -14.111 l2.9297 0 l0 14.111 l-2.9297 0 z M370.2588296875 17.4121 l4.4238 0 l0 2.5879 l-7.3535 0 l0 -14.111 l2.9297 0 l0 11.523 z M379.32375859375 20 l0 -14.111 l2.9297 0 l0 14.111 l-2.9297 0 z M396.484609375 5.888999999999999 l0 2.5781 l-3.3496 0 l0 11.533 l-2.9004 0 l0 -11.533 l-3.3691 0 l0 -2.5781 l9.6191 0 z M411.69178515625 5.888999999999999 l-4.6387 7.3535 l0 6.7578 l-2.9395 0 l0 -6.6895 l-4.668 -7.4219 l3.2422 0 l2.8809 4.8047 l2.8906 -4.8047 l3.2324 0 z"></path></g>
			</g>
		</svg>
	